<svg version="1.1" id="Layer_1" xmlns="http://www.w3.org/2000/svg" xmlns:xlink="http://www.w3.org/1999/xlink" x="0px" y="0px"
	 width="100%" viewBox="0 0 512 512" enable-background="new 0 0 512 512" xml:space="preserve">
<path fill="#000000" opacity="1.000000" stroke="none" 
	d="
M324.000000,513.000000 
	C216.026230,513.000000 108.552452,513.000000 1.039339,513.000000 
	C1.039339,342.401215 1.039339,171.802399 1.039339,1.101793 
	C171.557114,1.101793 342.114319,1.101793 512.835754,1.101793 
	C512.835754,171.666534 512.835754,342.333252 512.835754,513.000000 
	C450.135712,513.000000 387.317841,513.000000 324.000000,513.000000 
M317.734680,123.011040 
	C306.014099,124.340645 294.299744,125.728851 282.570648,126.978775 
	C275.059265,127.779236 267.517181,128.290253 260.004883,129.083191 
	C248.277344,130.321060 236.568085,131.731812 224.841995,132.984283 
	C217.494064,133.769135 210.120346,134.314285 202.774551,135.116791 
	C191.546997,136.343369 180.341492,137.773529 169.111389,138.974686 
	C161.434891,139.795715 153.718689,140.248932 146.044830,141.090652 
	C135.150070,142.285675 124.289261,143.792343 113.392311,144.964722 
	C105.385948,145.826111 97.332710,146.246872 89.321922,147.073029 
	C74.163719,148.636307 58.997826,150.166748 43.882030,152.081146 
	C36.735195,152.986282 32.964542,153.443832 32.970425,160.896561 
	C33.021828,226.058197 33.021858,291.219910 32.956387,356.381531 
	C32.951496,361.250702 35.894444,363.385742 39.819706,363.885590 
	C50.070541,365.190918 60.386189,365.985199 70.674294,367.000488 
	C84.060181,368.321442 97.443100,369.672699 110.829735,370.986023 
	C127.976906,372.668274 145.126999,374.320679 162.274902,375.995575 
	C175.828995,377.319489 189.379868,378.676758 202.935425,379.985443 
	C220.414856,381.672913 237.898956,383.312103 255.378357,384.999817 
	C268.932129,386.308502 282.477386,387.706787 296.034546,388.978729 
	C309.548218,390.246613 323.071991,391.406769 336.613464,392.616150 
	C336.613464,302.186615 336.613464,211.682266 336.613464,121.472046 
	C330.394531,122.001785 324.526917,122.501602 317.734680,123.011040 
M417.000000,304.500000 
	C417.000000,249.188721 417.000000,193.877426 417.000000,138.261917 
	C395.639343,132.920502 374.457428,127.623772 353.320374,122.338257 
	C353.320374,212.341614 353.320374,302.060944 353.320374,391.829285 
	C357.111603,390.993042 360.596375,390.268280 364.059814,389.452942 
	C380.182892,385.657532 396.235779,381.518616 412.463348,378.243622 
	C416.656403,377.397400 417.057434,375.875458 417.044403,372.491058 
	C416.958435,350.160980 417.000000,327.830414 417.000000,304.500000 
M433.000000,327.500000 
	C433.000000,342.613129 433.000000,357.726288 433.000000,372.758148 
	C433.882538,372.883057 434.234467,373.029846 434.538361,372.961884 
	C448.164612,369.913513 461.825439,367.004242 475.383667,363.677277 
	C479.061981,362.774689 481.102997,360.121704 481.093506,355.628113 
	C480.956940,290.984314 480.961029,226.340103 481.075073,161.696259 
	C481.084106,156.564285 479.239166,153.815704 474.249847,152.607376 
	C460.565369,149.293335 446.935822,145.752594 433.000000,142.229660 
	C433.000000,203.890762 433.000000,265.195374 433.000000,327.500000 
z"/>
<path fill="#29ABE2" opacity="1.000000" stroke="none" 
	d="
M318.196960,123.006226 
	C324.526917,122.501602 330.394531,122.001785 336.613464,121.472046 
	C336.613464,211.682266 336.613464,302.186615 336.613464,392.616150 
	C323.071991,391.406769 309.548218,390.246613 296.034546,388.978729 
	C282.477386,387.706787 268.932129,386.308502 255.378357,384.999817 
	C237.898956,383.312103 220.414856,381.672913 202.935425,379.985443 
	C189.379868,378.676758 175.828995,377.319489 162.274902,375.995575 
	C145.126999,374.320679 127.976906,372.668274 110.829735,370.986023 
	C97.443100,369.672699 84.060181,368.321442 70.674294,367.000488 
	C60.386189,365.985199 50.070541,365.190918 39.819706,363.885590 
	C35.894444,363.385742 32.951496,361.250702 32.956387,356.381531 
	C33.021858,291.219910 33.021828,226.058197 32.970425,160.896561 
	C32.964542,153.443832 36.735195,152.986282 43.882030,152.081146 
	C58.997826,150.166748 74.163719,148.636307 89.321922,147.073029 
	C97.332710,146.246872 105.385948,145.826111 113.392311,144.964722 
	C124.289261,143.792343 135.150070,142.285675 146.044830,141.090652 
	C153.718689,140.248932 161.434891,139.795715 169.111389,138.974686 
	C180.341492,137.773529 191.546997,136.343369 202.774551,135.116791 
	C210.120346,134.314285 217.494064,133.769135 224.841995,132.984283 
	C236.568085,131.731812 248.277344,130.321060 260.004883,129.083191 
	C267.517181,128.290253 275.059265,127.779236 282.570648,126.978775 
	C294.299744,125.728851 306.014099,124.340645 318.196960,123.006226 
M297.000000,213.500000 
	C297.000000,199.512527 297.078033,185.524216 296.928406,171.538345 
	C296.901306,169.003845 296.594818,166.017441 295.226654,164.080856 
	C293.874115,162.166367 291.046600,160.361206 288.805450,160.284729 
	C286.796326,160.216171 283.908173,162.108322 282.848358,163.959976 
	C281.481873,166.347427 281.074982,169.555115 281.070190,172.410904 
	C280.975922,228.693695 280.986816,284.976715 281.042236,341.259644 
	C281.044800,343.843536 281.449982,346.476837 282.038971,349.000458 
	C283.420349,354.918732 290.163208,357.001984 293.890320,352.273102 
	C295.889801,349.736176 296.858337,345.732941 296.873444,342.384979 
	C297.065521,299.757355 297.000000,257.128510 297.000000,213.500000 
M243.000000,281.500000 
	C243.000000,247.370117 243.022964,213.240204 242.956650,179.110458 
	C242.951324,176.365387 242.559036,173.569977 241.950516,170.887817 
	C240.688629,165.325699 233.920029,163.080063 230.396057,167.463409 
	C228.284317,170.090134 227.150635,174.237366 227.137573,177.707062 
	C226.939514,230.316223 226.985092,282.926392 227.042328,335.536194 
	C227.045319,338.281097 226.936554,341.432312 228.186493,343.661835 
	C229.596008,346.175964 232.260818,349.026245 234.806625,349.517365 
	C236.670639,349.877045 239.823364,347.073059 241.293533,344.921875 
	C242.636307,342.957092 242.914459,339.977600 242.932022,337.440277 
	C243.058777,319.127563 242.999985,300.813568 243.000000,281.500000 
M187.998886,176.881165 
	C185.862183,174.921585 183.958832,171.871170 181.514771,171.348328 
	C179.567383,170.931747 176.152130,173.068558 174.859467,175.037598 
	C173.387604,177.279602 173.075912,180.592712 173.070343,183.441879 
	C172.973007,233.217941 172.970123,282.994293 173.083237,332.770294 
	C173.089279,335.425323 173.730026,338.448730 175.135437,340.611938 
	C176.230087,342.296844 178.973587,343.757050 180.987198,343.760742 
	C183.008057,343.764435 185.771866,342.323944 186.870300,340.641602 
	C188.279755,338.482910 188.911041,335.452179 188.917053,332.794983 
	C189.029770,283.018982 189.010788,233.242645 188.958801,183.466446 
	C188.956802,181.552338 188.349808,179.638840 187.998886,176.881165 
M119.000000,218.500000 
	C119.000008,254.325195 118.978813,290.150421 119.044357,325.975494 
	C119.049080,328.557831 119.245972,331.300385 120.121071,333.687012 
	C121.937256,338.640198 128.541534,341.957977 131.899353,336.353485 
	C133.630997,333.463257 134.853882,329.766937 134.871109,326.427399 
	C135.072281,287.437317 135.000031,248.445816 134.999969,209.454681 
	C134.999954,201.956390 135.120483,194.455551 134.963776,186.960541 
	C134.819626,180.066406 131.147095,176.269516 125.726112,177.009262 
	C121.663925,177.563583 119.058929,181.502258 119.018608,187.506943 
	C118.951492,197.504227 119.000114,207.502274 119.000000,218.500000 
M65.000000,232.500000 
	C65.000008,261.971466 64.974495,291.442963 65.044579,320.914276 
	C65.050713,323.495026 64.934174,326.566528 66.220688,328.526581 
	C67.744720,330.848480 70.659088,333.478027 73.101944,333.613708 
	C75.293411,333.735413 78.243973,331.061279 79.771263,328.863983 
	C81.015724,327.073578 80.951736,324.165161 80.955246,321.751740 
	C81.017021,279.292938 81.016838,236.834000 80.955704,194.375214 
	C80.952232,191.962906 81.016312,189.068527 79.783089,187.263275 
	C78.278702,185.061111 75.371590,182.368240 73.186035,182.465637 
	C70.733223,182.574921 67.768501,185.134079 66.225319,187.432312 
	C64.925507,189.368118 65.068970,192.454544 65.046700,195.035706 
	C64.941856,207.189697 65.000008,219.345108 65.000000,232.500000 
z"/>
<path fill="#29ABE2" opacity="1.000000" stroke="none" 
	d="
M417.000000,305.000000 
	C417.000000,327.830414 416.958435,350.160980 417.044403,372.491058 
	C417.057434,375.875458 416.656403,377.397400 412.463348,378.243622 
	C396.235779,381.518616 380.182892,385.657532 364.059814,389.452942 
	C360.596375,390.268280 357.111603,390.993042 353.320374,391.829285 
	C353.320374,302.060944 353.320374,212.341614 353.320374,122.338257 
	C374.457428,127.623772 395.639343,132.920502 417.000000,138.261917 
	C417.000000,193.877426 417.000000,249.188721 417.000000,305.000000 
z"/>
<path fill="#29ABE2" opacity="1.000000" stroke="none" 
	d="
M433.000000,327.000000 
	C433.000000,265.195374 433.000000,203.890762 433.000000,142.229660 
	C446.935822,145.752594 460.565369,149.293335 474.249847,152.607376 
	C479.239166,153.815704 481.084106,156.564285 481.075073,161.696259 
	C480.961029,226.340103 480.956940,290.984314 481.093506,355.628113 
	C481.102997,360.121704 479.061981,362.774689 475.383667,363.677277 
	C461.825439,367.004242 448.164612,369.913513 434.538361,372.961884 
	C434.234467,373.029846 433.882538,372.883057 433.000000,372.758148 
	C433.000000,357.726288 433.000000,342.613129 433.000000,327.000000 
z"/>
<path fill="#000000" opacity="1.000000" stroke="none" 
	d="
M297.000000,214.000000 
	C297.000000,257.128510 297.065521,299.757355 296.873444,342.384979 
	C296.858337,345.732941 295.889801,349.736176 293.890320,352.273102 
	C290.163208,357.001984 283.420349,354.918732 282.038971,349.000458 
	C281.449982,346.476837 281.044800,343.843536 281.042236,341.259644 
	C280.986816,284.976715 280.975922,228.693695 281.070190,172.410904 
	C281.074982,169.555115 281.481873,166.347427 282.848358,163.959976 
	C283.908173,162.108322 286.796326,160.216171 288.805450,160.284729 
	C291.046600,160.361206 293.874115,162.166367 295.226654,164.080856 
	C296.594818,166.017441 296.901306,169.003845 296.928406,171.538345 
	C297.078033,185.524216 297.000000,199.512527 297.000000,214.000000 
z"/>
<path fill="#000000" opacity="1.000000" stroke="none" 
	d="
M243.000000,282.000000 
	C242.999985,300.813568 243.058777,319.127563 242.932022,337.440277 
	C242.914459,339.977600 242.636307,342.957092 241.293533,344.921875 
	C239.823364,347.073059 236.670639,349.877045 234.806625,349.517365 
	C232.260818,349.026245 229.596008,346.175964 228.186493,343.661835 
	C226.936554,341.432312 227.045319,338.281097 227.042328,335.536194 
	C226.985092,282.926392 226.939514,230.316223 227.137573,177.707062 
	C227.150635,174.237366 228.284317,170.090134 230.396057,167.463409 
	C233.920029,163.080063 240.688629,165.325699 241.950516,170.887817 
	C242.559036,173.569977 242.951324,176.365387 242.956650,179.110458 
	C243.022964,213.240204 243.000000,247.370117 243.000000,282.000000 
z"/>
<path fill="#000000" opacity="1.000000" stroke="none" 
	d="
M188.011810,177.303116 
	C188.349808,179.638840 188.956802,181.552338 188.958801,183.466446 
	C189.010788,233.242645 189.029770,283.018982 188.917053,332.794983 
	C188.911041,335.452179 188.279755,338.482910 186.870300,340.641602 
	C185.771866,342.323944 183.008057,343.764435 180.987198,343.760742 
	C178.973587,343.757050 176.230087,342.296844 175.135437,340.611938 
	C173.730026,338.448730 173.089279,335.425323 173.083237,332.770294 
	C172.970123,282.994293 172.973007,233.217941 173.070343,183.441879 
	C173.075912,180.592712 173.387604,177.279602 174.859467,175.037598 
	C176.152130,173.068558 179.567383,170.931747 181.514771,171.348328 
	C183.958832,171.871170 185.862183,174.921585 188.011810,177.303116 
z"/>
<path fill="#000000" opacity="1.000000" stroke="none" 
	d="
M119.000000,218.000000 
	C119.000114,207.502274 118.951492,197.504227 119.018608,187.506943 
	C119.058929,181.502258 121.663925,177.563583 125.726112,177.009262 
	C131.147095,176.269516 134.819626,180.066406 134.963776,186.960541 
	C135.120483,194.455551 134.999954,201.956390 134.999969,209.454681 
	C135.000031,248.445816 135.072281,287.437317 134.871109,326.427399 
	C134.853882,329.766937 133.630997,333.463257 131.899353,336.353485 
	C128.541534,341.957977 121.937256,338.640198 120.121071,333.687012 
	C119.245972,331.300385 119.049080,328.557831 119.044357,325.975494 
	C118.978813,290.150421 119.000008,254.325195 119.000000,218.000000 
z"/>
<path fill="#000000" opacity="1.000000" stroke="none" 
	d="
M65.000000,232.000000 
	C65.000008,219.345108 64.941856,207.189697 65.046700,195.035706 
	C65.068970,192.454544 64.925507,189.368118 66.225319,187.432312 
	C67.768501,185.134079 70.733223,182.574921 73.186035,182.465637 
	C75.371590,182.368240 78.278702,185.061111 79.783089,187.263275 
	C81.016312,189.068527 80.952232,191.962906 80.955704,194.375214 
	C81.016838,236.834000 81.017021,279.292938 80.955246,321.751740 
	C80.951736,324.165161 81.015724,327.073578 79.771263,328.863983 
	C78.243973,331.061279 75.293411,333.735413 73.101944,333.613708 
	C70.659088,333.478027 67.744720,330.848480 66.220688,328.526581 
	C64.934174,326.566528 65.050713,323.495026 65.044579,320.914276 
	C64.974495,291.442963 65.000008,261.971466 65.000000,232.000000 
z"/>
</svg>